<svg width="19" height="18" viewBox="0 0 19 18" fill="none" xmlns="http://www.w3.org/2000/svg">
<g clip-path="url(#clip0_60_651)">
<path d="M18.4904 9.16838C18.4904 8.43093 18.4292 7.89279 18.2967 7.33472H9.6792V10.6632H14.7375C14.6355 11.4904 14.0848 12.7361 12.861 13.5732L12.8438 13.6846L15.5685 15.7472L15.7573 15.7657C17.491 14.201 18.4904 11.899 18.4904 9.16838Z" fill="#4285F4"/>
<path d="M9.67933 17.9382C12.1574 17.9382 14.2379 17.1409 15.7574 15.7657L12.8611 13.5732C12.0861 14.1014 11.0459 14.4701 9.67933 14.4701C7.25218 14.4701 5.19217 12.9055 4.45783 10.743L4.35019 10.7519L1.51703 12.8945L1.47998 12.9952C2.98929 15.9251 6.08954 17.9382 9.67933 17.9382Z" fill="#34A853"/>
<path d="M4.45783 10.743C4.26406 10.1849 4.15193 9.58692 4.15193 8.96908C4.15193 8.35117 4.26407 7.75325 4.44763 7.19519L4.4425 7.07633L1.57383 4.89929L1.47998 4.94292C0.857916 6.15874 0.500977 7.52406 0.500977 8.96908C0.500977 10.4141 0.857916 11.7793 1.47998 12.9952L4.45783 10.743Z" fill="#FBBC05"/>
<path d="M9.67933 3.46802C11.4028 3.46802 12.5654 4.19551 13.2283 4.80346L15.8186 2.33196C14.2277 0.886947 12.1574 0 9.67933 0C6.08954 0 2.98929 2.01305 1.47998 4.94292L4.44763 7.19519C5.19217 5.03265 7.25218 3.46802 9.67933 3.46802Z" fill="#EB4335"/>
</g>
<defs>
<clipPath id="clip0_60_651">
<rect width="18" height="18" fill="white" transform="translate(0.5)"/>
</clipPath>
</defs>
</svg>
