<svg width="21" height="32" viewBox="0 0 21 32" fill="none" xmlns="http://www.w3.org/2000/svg">
<g clip-path="url(#clip0_26_366)">
<path d="M4.73675 23.7376C4.10878 23.7376 3.48977 23.6927 2.86179 23.6927C2.11925 23.6605 1.41518 23.3535 0.886329 22.8313C0.357475 22.309 0.0415815 21.6089 0 20.8668C0 18.005 0 15.1343 0 12.2725C0 11.797 0.16148 11.6625 0.610036 11.6894C1.16216 11.7387 1.71758 11.7387 2.26969 11.6894C2.70314 11.6404 3.14181 11.7077 3.54068 11.8842C3.93955 12.0608 4.28425 12.3403 4.53939 12.6941C4.6445 12.8045 4.7553 12.9093 4.87132 13.0081L4.95206 11.7073C6.62069 11.7073 8.23549 11.7073 9.85927 11.7073C10.4191 11.7608 10.9638 11.919 11.4651 12.1738C11.7342 12.2994 11.8957 12.6493 12.102 12.8915L12.2456 12.8018L12.3084 11.7611C12.454 11.7387 12.6008 11.7237 12.748 11.7163H17.3502C17.7243 11.6667 18.1049 11.7035 18.4626 11.8241C18.8203 11.9447 19.1456 12.1458 19.4133 12.4118C19.6811 12.6778 19.8843 13.0018 20.0072 13.3587C20.1301 13.7156 20.1694 14.0959 20.1222 14.4704V22.679C20.1222 23.8004 20.1222 23.8004 18.9739 23.8004H15.0446L14.9369 22.1228V15.529C14.9369 15.1253 14.9369 14.7216 14.8831 14.3179C14.9145 14.1149 14.8656 13.9076 14.7466 13.7401C14.6277 13.5726 14.4482 13.4581 14.2461 13.4208C13.6515 13.3356 13.0524 13.2847 12.4519 13.2683C12.4519 14.1654 12.5327 14.8741 12.5416 15.6277C12.5416 17.4757 12.5416 19.3238 12.5416 21.1718C12.5416 21.8537 12.7569 22.1138 13.3131 22.1766C14.2103 22.2753 14.2103 22.2753 14.1654 23.1545V23.3698C14.1654 23.7107 14.0398 23.8273 13.7079 23.8183C12.748 23.8183 11.7881 23.8183 10.8281 23.8183C8.58537 23.8183 7.35632 22.5983 7.35632 20.3644C7.35632 18.3459 7.35632 16.3364 7.35632 14.3179C7.35632 13.5284 7.1141 13.3042 6.32464 13.2952C5.99326 13.2682 5.66023 13.2682 5.32885 13.2952C5.24796 13.3225 5.17521 13.3697 5.11723 13.4324C5.05925 13.4951 5.01789 13.5713 4.99692 13.654C4.99692 14.2372 4.99692 14.8382 4.99692 15.4483C4.99692 17.2425 4.99692 19.0367 4.99692 20.7771C4.96242 21.0649 5.03469 21.3554 5.20004 21.5935C5.36538 21.8316 5.6123 22.0007 5.89403 22.069C6.68349 22.2215 6.68349 22.2215 6.65657 23.0378C6.65657 23.2531 6.65657 23.4774 6.65657 23.7466L4.73675 23.7376Z" fill="#05066A"/>
<path d="M14.9369 22.1497L15.0446 23.8273C15.0446 26.5127 15.0446 29.204 15.0446 31.9013C15.0328 31.9513 15.0147 31.9995 14.9908 32.0448H4.84441V31.3989C4.84441 29.0724 4.84441 26.7459 4.84441 24.4194C4.8291 24.2018 4.7961 23.9857 4.74573 23.7735H6.71937C6.71937 23.5043 6.71937 23.2801 6.71937 23.0648C6.71937 22.2484 6.71937 22.2484 5.95683 22.0959C5.6751 22.0277 5.42818 21.8585 5.26284 21.6204C5.0975 21.3823 5.02522 21.0918 5.05972 20.804C5.05972 19.0098 5.05972 17.2156 5.05972 15.4752C5.05972 14.8921 5.05972 14.291 5.05972 13.681C5.08069 13.5982 5.12205 13.522 5.18003 13.4593C5.23801 13.3966 5.31076 13.3495 5.39165 13.3221C5.72303 13.2951 6.05606 13.2951 6.38744 13.3221C7.1769 13.3221 7.41015 13.5554 7.41912 14.3448C7.41912 16.3633 7.41912 18.3729 7.41912 20.3914C7.41912 22.6252 8.64817 23.8452 10.8909 23.8452C11.8509 23.8452 12.8108 23.8452 13.7707 23.8452C14.1026 23.8452 14.2551 23.7376 14.2282 23.3967V23.1814C14.2282 22.2843 14.2282 22.2843 13.3759 22.2035C12.8197 22.1407 12.6044 21.8806 12.6044 21.1988C12.6044 19.3507 12.6044 17.5027 12.6044 15.6546C12.6044 14.901 12.5416 14.1564 12.5147 13.2952C13.1152 13.3116 13.7143 13.3625 14.3089 13.4477C14.511 13.485 14.6905 13.5995 14.8094 13.767C14.9284 13.9345 14.9773 14.1418 14.9459 14.3448C14.8551 14.4875 14.7912 14.6456 14.7575 14.8113C14.7575 17.1079 14.7575 19.4105 14.7575 21.7191C14.7216 21.8716 14.8562 22.0062 14.9369 22.1497Z" fill="#B8B8BA"/>
<path d="M15.7084 5.70563C15.7006 7.14752 15.1479 8.53312 14.1613 9.58463C13.1747 10.6361 11.827 11.2758 10.3886 11.3754C9.61364 11.4145 8.83889 11.2949 8.11183 11.0239C7.38477 10.753 6.72073 10.3363 6.16044 9.79953C5.60016 9.26276 5.15543 8.61719 4.85354 7.90242C4.55164 7.18764 4.39895 6.41873 4.40483 5.64284C4.41315 4.14388 5.0166 2.70963 6.08241 1.6556C6.61014 1.1337 7.2355 0.720849 7.92279 0.440629C8.61008 0.160408 9.34583 0.0183027 10.088 0.0224261C10.8302 0.0265495 11.5644 0.176821 12.2485 0.46466C12.9326 0.7525 13.5534 1.17227 14.0753 1.7C14.5972 2.22774 15.01 2.8531 15.2902 3.54039C15.5705 4.22768 15.7126 4.96343 15.7084 5.70563ZM10.0566 0.385757C9.36005 0.38103 8.66938 0.513853 8.02423 0.776611C7.37908 1.03937 6.79214 1.42689 6.29708 1.91696C5.80201 2.40702 5.40855 2.99 5.13925 3.63244C4.86996 4.27489 4.73013 4.96418 4.72779 5.66078C4.69544 6.37934 4.80865 7.09704 5.06063 7.77075C5.31261 8.44446 5.69816 9.0603 6.19411 9.58127C6.69007 10.1022 7.2862 10.5176 7.94671 10.8024C8.60721 11.0872 9.31847 11.2356 10.0378 11.2386C10.757 11.2416 11.4695 11.0992 12.1324 10.82C12.7953 10.5408 13.3949 10.1304 13.8952 9.61366C14.3955 9.09687 14.7862 8.4843 15.0439 7.81273C15.3015 7.14116 15.4208 6.42445 15.3945 5.70563C15.398 5.0045 15.2623 4.30964 14.9951 3.66141C14.7279 3.01318 14.3346 2.42449 13.8379 1.92954C13.3413 1.4346 12.7513 1.04325 12.1022 0.778231C11.4531 0.513213 10.7578 0.379806 10.0566 0.385757Z" fill="#C5C5C5"/>
<path d="M14.9369 22.1497C14.8561 22.0062 14.7216 21.8716 14.7216 21.7281C14.7216 19.4195 14.7216 17.1169 14.7216 14.8203C14.7553 14.6546 14.8191 14.4964 14.91 14.3538C14.91 14.7485 14.9638 15.1522 14.9638 15.5559L14.9369 22.1497Z" fill="#C0C3C4"/>
<path d="M10.0925 1.17523C10.6923 1.17499 11.286 1.29504 11.8386 1.52828C12.3911 1.76151 12.8913 2.10319 13.3095 2.53311C13.7277 2.96302 14.0555 3.47245 14.2734 4.03124C14.4913 4.59003 14.5949 5.18685 14.5781 5.78638C14.5781 6.97603 14.1055 8.11695 13.2643 8.95816C12.4231 9.79936 11.2822 10.2719 10.0925 10.2719C9.48521 10.2832 8.88195 10.1709 8.31932 9.942C7.75669 9.71309 7.24641 9.3723 6.81943 8.94028C6.39245 8.50827 6.05766 7.99403 5.83536 7.42876C5.61306 6.86349 5.50789 6.25895 5.52621 5.65182C5.52731 5.05666 5.64683 4.46768 5.87781 3.91918C6.1088 3.37068 6.44662 2.87362 6.87162 2.45698C7.29661 2.04034 7.80026 1.71244 8.35324 1.49238C8.90622 1.27232 9.49746 1.16451 10.0925 1.17523ZM5.9658 5.72359C5.97944 6.81086 6.41438 7.85044 7.17907 8.62349C7.94375 9.39655 8.97854 9.84277 10.0656 9.86825C11.1435 9.84089 12.1695 9.39989 12.9311 8.63664C13.6927 7.87338 14.1314 6.84638 14.1564 5.76844C14.1639 5.22342 14.0611 4.68252 13.8543 4.1782C13.6475 3.67388 13.341 3.21654 12.9531 2.83364C12.5651 2.45074 12.1038 2.15017 11.5969 1.94997C11.0899 1.74978 10.5477 1.65408 10.0028 1.66864C9.47114 1.66863 8.94472 1.77364 8.45375 1.97764C7.96279 2.18164 7.51695 2.48061 7.14185 2.85739C6.76674 3.23416 6.46975 3.68132 6.26793 4.17318C6.06611 4.66505 5.96343 5.19193 5.9658 5.72359Z" fill="#C1C2C2"/>
<path d="M6.89878 5.61592C6.9149 4.99025 7.11604 4.38339 7.47683 3.87196C7.83761 3.36054 8.34184 2.96748 8.92586 2.74244C9.50988 2.5174 10.1475 2.47045 10.7582 2.60753C11.3688 2.74462 11.9252 3.05958 12.357 3.51265C12.7888 3.96572 13.0766 4.53658 13.1842 5.15314C13.2918 5.7697 13.2143 6.40431 12.9614 6.97684C12.7086 7.54936 12.2917 8.03413 11.7635 8.36991C11.2354 8.70569 10.6195 8.87744 9.99382 8.86346C9.15306 8.8423 8.35501 8.4885 7.77478 7.87968C7.19455 7.27085 6.87951 6.45673 6.89878 5.61592Z" fill="#06076A"/>
</g>
<defs>
<clipPath id="clip0_26_366">
<rect width="20.1222" height="32" fill="white"/>
</clipPath>
</defs>
</svg>
